<mxfile host="app.diagrams.net" agent="Mozilla/5.0 (Macintosh; Intel Mac OS X 10_15_7) AppleWebKit/537.36 (KHTML, like Gecko) Chrome/130.0.0.0 Safari/537.36" version="26.0.10">
  <diagram name="ページ1" id="7iFzVlBG6g8FdXhl6_qu">
    <mxGraphModel dx="2533" dy="864" grid="1" gridSize="10" guides="1" tooltips="1" connect="1" arrows="1" fold="1" page="1" pageScale="1" pageWidth="827" pageHeight="1169" math="0" shadow="0">
      <root>
        <mxCell id="0" />
        <mxCell id="1" parent="0" />
        <mxCell id="Ub6wvxyK5UW_MMuhpgh0-1" value="" style="group" vertex="1" connectable="0" parent="1">
          <mxGeometry x="-2.5" y="10" width="1132.5" height="615" as="geometry" />
        </mxCell>
        <mxCell id="Cx3m1D398213YTi-TwLS-38" value="" style="rounded=0;whiteSpace=wrap;html=1;fillColor=none;dashed=1;dashPattern=8 8;strokeWidth=1;" parent="Ub6wvxyK5UW_MMuhpgh0-1" vertex="1">
          <mxGeometry x="342.5" width="200" height="280" as="geometry" />
        </mxCell>
        <mxCell id="Cx3m1D398213YTi-TwLS-14" value="" style="rounded=0;whiteSpace=wrap;html=1;fillColor=none;" parent="Ub6wvxyK5UW_MMuhpgh0-1" vertex="1">
          <mxGeometry x="22.5" y="33" width="90" height="227" as="geometry" />
        </mxCell>
        <mxCell id="Cx3m1D398213YTi-TwLS-1" value="" style="image;aspect=fixed;html=1;points=[];align=center;fontSize=12;image=img/lib/azure2/compute/Shared_Image_Galleries.svg;" parent="Ub6wvxyK5UW_MMuhpgh0-1" vertex="1">
          <mxGeometry x="202.5" y="100" width="64" height="64" as="geometry" />
        </mxCell>
        <mxCell id="Cx3m1D398213YTi-TwLS-2" value="" style="shape=image;html=1;verticalAlign=top;verticalLabelPosition=bottom;labelBackgroundColor=#ffffff;imageAspect=0;aspect=fixed;image=https://cdn4.iconfinder.com/data/icons/48-bubbles/48/26.Camera-Back-128.png" parent="Ub6wvxyK5UW_MMuhpgh0-1" vertex="1">
          <mxGeometry x="37.5" y="50" width="60" height="60" as="geometry" />
        </mxCell>
        <mxCell id="Cx3m1D398213YTi-TwLS-3" value="" style="sketch=0;pointerEvents=1;shadow=0;dashed=0;html=1;strokeColor=none;fillColor=#505050;labelPosition=center;verticalLabelPosition=bottom;verticalAlign=top;outlineConnect=0;align=center;shape=mxgraph.office.devices.cell_phone_iphone_proportional;" parent="Ub6wvxyK5UW_MMuhpgh0-1" vertex="1">
          <mxGeometry x="47.5" y="164" width="40" height="70" as="geometry" />
        </mxCell>
        <mxCell id="Cx3m1D398213YTi-TwLS-4" value="" style="shape=flexArrow;endArrow=classic;html=1;rounded=0;" parent="Ub6wvxyK5UW_MMuhpgh0-1" edge="1">
          <mxGeometry width="50" height="50" relative="1" as="geometry">
            <mxPoint x="135" y="131.94" as="sourcePoint" />
            <mxPoint x="197" y="131.44" as="targetPoint" />
          </mxGeometry>
        </mxCell>
        <mxCell id="Cx3m1D398213YTi-TwLS-6" value="カメラ（撮影機能）" style="text;html=1;align=center;verticalAlign=middle;whiteSpace=wrap;rounded=0;fontSize=14;" parent="Ub6wvxyK5UW_MMuhpgh0-1" vertex="1">
          <mxGeometry width="135" height="30" as="geometry" />
        </mxCell>
        <mxCell id="Cx3m1D398213YTi-TwLS-7" value="名刺写真" style="text;html=1;align=center;verticalAlign=middle;whiteSpace=wrap;rounded=0;" parent="Ub6wvxyK5UW_MMuhpgh0-1" vertex="1">
          <mxGeometry x="204.5" y="70" width="60" height="30" as="geometry" />
        </mxCell>
        <mxCell id="Cx3m1D398213YTi-TwLS-10" value="" style="group" parent="Ub6wvxyK5UW_MMuhpgh0-1" vertex="1" connectable="0">
          <mxGeometry x="702.5" y="150" width="430" height="290" as="geometry" />
        </mxCell>
        <mxCell id="Cx3m1D398213YTi-TwLS-9" value="" style="rounded=0;whiteSpace=wrap;html=1;fillColor=none;" parent="Cx3m1D398213YTi-TwLS-10" vertex="1">
          <mxGeometry width="430" height="290" as="geometry" />
        </mxCell>
        <mxCell id="Cx3m1D398213YTi-TwLS-8" value="" style="outlineConnect=0;dashed=0;verticalLabelPosition=bottom;verticalAlign=top;align=center;html=1;shape=mxgraph.aws3.cloud_2;fillColor=#F58534;gradientColor=none;" parent="Cx3m1D398213YTi-TwLS-10" vertex="1">
          <mxGeometry width="40" height="40" as="geometry" />
        </mxCell>
        <mxCell id="Cx3m1D398213YTi-TwLS-24" value="Amazon S3" style="sketch=0;outlineConnect=0;fontColor=#232F3E;gradientColor=none;strokeColor=#ffffff;fillColor=#232F3E;dashed=0;verticalLabelPosition=middle;verticalAlign=bottom;align=center;html=1;whiteSpace=wrap;fontSize=10;fontStyle=1;spacing=3;shape=mxgraph.aws4.productIcon;prIcon=mxgraph.aws4.s3;" parent="Cx3m1D398213YTi-TwLS-10" vertex="1">
          <mxGeometry x="80" y="190" width="60" height="80" as="geometry" />
        </mxCell>
        <mxCell id="Cx3m1D398213YTi-TwLS-35" value="Amazon API Gateway" style="sketch=0;outlineConnect=0;fontColor=#232F3E;gradientColor=none;strokeColor=#ffffff;fillColor=#232F3E;dashed=0;verticalLabelPosition=middle;verticalAlign=bottom;align=center;html=1;whiteSpace=wrap;fontSize=10;fontStyle=1;spacing=3;shape=mxgraph.aws4.productIcon;prIcon=mxgraph.aws4.api_gateway;" parent="Cx3m1D398213YTi-TwLS-10" vertex="1">
          <mxGeometry x="80" y="30" width="60" height="100" as="geometry" />
        </mxCell>
        <mxCell id="Cx3m1D398213YTi-TwLS-36" value="AWS Lambda" style="sketch=0;outlineConnect=0;fontColor=#232F3E;gradientColor=none;strokeColor=#ffffff;fillColor=#232F3E;dashed=0;verticalLabelPosition=middle;verticalAlign=bottom;align=center;html=1;whiteSpace=wrap;fontSize=10;fontStyle=1;spacing=3;shape=mxgraph.aws4.productIcon;prIcon=mxgraph.aws4.lambda;" parent="Cx3m1D398213YTi-TwLS-10" vertex="1">
          <mxGeometry x="220" y="30" width="60" height="90" as="geometry" />
        </mxCell>
        <mxCell id="Cx3m1D398213YTi-TwLS-46" value="詳細は割愛" style="text;html=1;align=center;verticalAlign=middle;whiteSpace=wrap;rounded=0;" parent="Cx3m1D398213YTi-TwLS-10" vertex="1">
          <mxGeometry x="220" y="160" width="90" height="30" as="geometry" />
        </mxCell>
        <mxCell id="Cx3m1D398213YTi-TwLS-12" value="バックエンド" style="text;html=1;align=center;verticalAlign=middle;whiteSpace=wrap;rounded=0;fontStyle=1;fontSize=14;" parent="Ub6wvxyK5UW_MMuhpgh0-1" vertex="1">
          <mxGeometry x="862.5" y="450" width="110" height="30" as="geometry" />
        </mxCell>
        <mxCell id="Cx3m1D398213YTi-TwLS-15" value="" style="image;aspect=fixed;html=1;points=[];align=center;fontSize=12;image=img/lib/azure2/app_services/App_Service_Domains.svg;" parent="Ub6wvxyK5UW_MMuhpgh0-1" vertex="1">
          <mxGeometry x="366.3" y="50" width="68" height="55.00000000000001" as="geometry" />
        </mxCell>
        <mxCell id="Cx3m1D398213YTi-TwLS-16" value="" style="image;sketch=0;aspect=fixed;html=1;points=[];align=center;fontSize=12;image=img/lib/mscae/App_Service_Mobile_App.svg;" parent="Ub6wvxyK5UW_MMuhpgh0-1" vertex="1">
          <mxGeometry x="379.90000000000003" y="155" width="40.8" height="60" as="geometry" />
        </mxCell>
        <mxCell id="Cx3m1D398213YTi-TwLS-17" value="" style="rounded=0;whiteSpace=wrap;html=1;fillColor=none;" parent="Ub6wvxyK5UW_MMuhpgh0-1" vertex="1">
          <mxGeometry x="355.3" y="33" width="90" height="227" as="geometry" />
        </mxCell>
        <mxCell id="Cx3m1D398213YTi-TwLS-18" value="アプリケーション" style="text;html=1;align=center;verticalAlign=middle;whiteSpace=wrap;rounded=0;fontSize=14;" parent="Ub6wvxyK5UW_MMuhpgh0-1" vertex="1">
          <mxGeometry x="346.9" y="3" width="115.6" height="30" as="geometry" />
        </mxCell>
        <mxCell id="Cx3m1D398213YTi-TwLS-19" value="Web" style="text;html=1;align=center;verticalAlign=middle;whiteSpace=wrap;rounded=0;" parent="Ub6wvxyK5UW_MMuhpgh0-1" vertex="1">
          <mxGeometry x="342.5" y="110" width="115.6" height="30" as="geometry" />
        </mxCell>
        <mxCell id="Cx3m1D398213YTi-TwLS-21" value="スマホ" style="text;html=1;align=center;verticalAlign=middle;whiteSpace=wrap;rounded=0;" parent="Ub6wvxyK5UW_MMuhpgh0-1" vertex="1">
          <mxGeometry x="342.5" y="220" width="115.6" height="30" as="geometry" />
        </mxCell>
        <mxCell id="Cx3m1D398213YTi-TwLS-22" value="" style="shape=flexArrow;endArrow=classic;html=1;rounded=0;" parent="Ub6wvxyK5UW_MMuhpgh0-1" edge="1">
          <mxGeometry width="50" height="50" relative="1" as="geometry">
            <mxPoint x="272.5" y="131.94" as="sourcePoint" />
            <mxPoint x="334.5" y="131.44" as="targetPoint" />
          </mxGeometry>
        </mxCell>
        <mxCell id="Cx3m1D398213YTi-TwLS-11" value="" style="fontColor=#0066CC;verticalAlign=top;verticalLabelPosition=bottom;labelPosition=center;align=center;html=1;outlineConnect=0;fillColor=#CCCCCC;strokeColor=#6881B3;gradientColor=none;gradientDirection=north;strokeWidth=2;shape=mxgraph.networks.desktop_pc;" parent="Ub6wvxyK5UW_MMuhpgh0-1" vertex="1">
          <mxGeometry x="582.5" y="76.5" width="50" height="97" as="geometry" />
        </mxCell>
        <mxCell id="Cx3m1D398213YTi-TwLS-25" value="" style="endArrow=none;html=1;rounded=0;" parent="Ub6wvxyK5UW_MMuhpgh0-1" edge="1">
          <mxGeometry width="50" height="50" relative="1" as="geometry">
            <mxPoint x="672.5" y="110" as="sourcePoint" />
            <mxPoint x="1112.5" y="140" as="targetPoint" />
          </mxGeometry>
        </mxCell>
        <mxCell id="Cx3m1D398213YTi-TwLS-26" value="" style="endArrow=none;html=1;rounded=0;" parent="Ub6wvxyK5UW_MMuhpgh0-1" edge="1">
          <mxGeometry width="50" height="50" relative="1" as="geometry">
            <mxPoint x="612.5" y="180" as="sourcePoint" />
            <mxPoint x="672.5" y="420" as="targetPoint" />
          </mxGeometry>
        </mxCell>
        <mxCell id="Cx3m1D398213YTi-TwLS-27" value="サーバー（巨大PC）" style="text;html=1;align=center;verticalAlign=middle;whiteSpace=wrap;rounded=0;fontSize=14;" parent="Ub6wvxyK5UW_MMuhpgh0-1" vertex="1">
          <mxGeometry x="512.5" y="46.5" width="210" height="30" as="geometry" />
        </mxCell>
        <mxCell id="Cx3m1D398213YTi-TwLS-28" value="" style="shape=flexArrow;endArrow=classic;html=1;rounded=0;" parent="Ub6wvxyK5UW_MMuhpgh0-1" edge="1">
          <mxGeometry width="50" height="50" relative="1" as="geometry">
            <mxPoint x="471.5" y="169.94" as="sourcePoint" />
            <mxPoint x="533.5" y="169.44" as="targetPoint" />
          </mxGeometry>
        </mxCell>
        <mxCell id="Cx3m1D398213YTi-TwLS-29" value="収集" style="text;html=1;align=center;verticalAlign=middle;whiteSpace=wrap;rounded=0;" parent="Ub6wvxyK5UW_MMuhpgh0-1" vertex="1">
          <mxGeometry x="135" y="155" width="60" height="30" as="geometry" />
        </mxCell>
        <mxCell id="Cx3m1D398213YTi-TwLS-30" value="データ送信" style="text;html=1;align=center;verticalAlign=middle;whiteSpace=wrap;rounded=0;" parent="Ub6wvxyK5UW_MMuhpgh0-1" vertex="1">
          <mxGeometry x="272.5" y="155" width="70" height="30" as="geometry" />
        </mxCell>
        <mxCell id="Cx3m1D398213YTi-TwLS-31" value="データ送受信" style="text;html=1;align=center;verticalAlign=middle;whiteSpace=wrap;rounded=0;" parent="Ub6wvxyK5UW_MMuhpgh0-1" vertex="1">
          <mxGeometry x="462.5" y="204" width="80" height="30" as="geometry" />
        </mxCell>
        <mxCell id="Cx3m1D398213YTi-TwLS-32" value="" style="shape=flexArrow;endArrow=classic;html=1;rounded=0;" parent="Ub6wvxyK5UW_MMuhpgh0-1" edge="1">
          <mxGeometry width="50" height="50" relative="1" as="geometry">
            <mxPoint x="533.5" y="103.89" as="sourcePoint" />
            <mxPoint x="471.5" y="104.39" as="targetPoint" />
          </mxGeometry>
        </mxCell>
        <mxCell id="Cx3m1D398213YTi-TwLS-33" value="Google Drive等を用いても良い" style="text;html=1;align=center;verticalAlign=middle;whiteSpace=wrap;rounded=0;perimeterSpacing=2;fillColor=#f5f5f5;fontColor=#333333;strokeColor=#666666;" parent="Ub6wvxyK5UW_MMuhpgh0-1" vertex="1">
          <mxGeometry x="135" y="260" width="180" height="30" as="geometry" />
        </mxCell>
        <mxCell id="Cx3m1D398213YTi-TwLS-34" value="" style="endArrow=none;html=1;rounded=0;" parent="Ub6wvxyK5UW_MMuhpgh0-1" edge="1">
          <mxGeometry width="50" height="50" relative="1" as="geometry">
            <mxPoint x="204.5" y="254" as="sourcePoint" />
            <mxPoint x="224.5" y="184" as="targetPoint" />
          </mxGeometry>
        </mxCell>
        <mxCell id="Cx3m1D398213YTi-TwLS-37" value="フロントエンド" style="text;html=1;align=center;verticalAlign=middle;whiteSpace=wrap;rounded=0;fontStyle=1;fontSize=14;" parent="Ub6wvxyK5UW_MMuhpgh0-1" vertex="1">
          <mxGeometry x="387.5" y="290" width="110" height="30" as="geometry" />
        </mxCell>
        <mxCell id="Cx3m1D398213YTi-TwLS-40" value="&lt;ul&gt;&lt;li&gt;分類後のデータの閲覧&lt;/li&gt;&lt;li&gt;名刺写真をアップロード&lt;/li&gt;&lt;li&gt;ログイン、ログアウト　etc.&lt;/li&gt;&lt;/ul&gt;" style="text;strokeColor=none;fillColor=none;html=1;whiteSpace=wrap;verticalAlign=middle;overflow=hidden;" parent="Ub6wvxyK5UW_MMuhpgh0-1" vertex="1">
          <mxGeometry x="336.2" y="310" width="212.6" height="80" as="geometry" />
        </mxCell>
        <mxCell id="Cx3m1D398213YTi-TwLS-41" value="&lt;ul&gt;&lt;li&gt;&lt;u&gt;名刺写真をテキスト事に分類&lt;/u&gt;&lt;/li&gt;&lt;li&gt;分類結果をフロントエンドに返す&lt;/li&gt;&lt;li&gt;ユーザー認証　&lt;/li&gt;&lt;li&gt;データの保存　etc.&lt;/li&gt;&lt;/ul&gt;" style="text;strokeColor=none;fillColor=none;html=1;whiteSpace=wrap;verticalAlign=middle;overflow=hidden;" parent="Ub6wvxyK5UW_MMuhpgh0-1" vertex="1">
          <mxGeometry x="811.2" y="470" width="231.3" height="80" as="geometry" />
        </mxCell>
        <mxCell id="Cx3m1D398213YTi-TwLS-43" value="現在実装中" style="text;strokeColor=none;fillColor=none;html=1;fontSize=14;fontStyle=0;verticalAlign=middle;align=center;textShadow=0;fontColor=#FF0000;" parent="Ub6wvxyK5UW_MMuhpgh0-1" vertex="1">
          <mxGeometry x="622.5" y="510" width="100" height="40" as="geometry" />
        </mxCell>
        <mxCell id="Cx3m1D398213YTi-TwLS-44" value="" style="endArrow=classic;html=1;rounded=0;" parent="Ub6wvxyK5UW_MMuhpgh0-1" edge="1">
          <mxGeometry width="50" height="50" relative="1" as="geometry">
            <mxPoint x="842.5" y="500" as="sourcePoint" />
            <mxPoint x="722.5" y="530" as="targetPoint" />
          </mxGeometry>
        </mxCell>
        <mxCell id="Cx3m1D398213YTi-TwLS-45" value="&lt;ul&gt;&lt;li&gt;写真から分類後のテキスト&lt;br&gt;を返す仕組みを検討&lt;/li&gt;&lt;li&gt;実装して精度検証　etc.&lt;/li&gt;&lt;/ul&gt;" style="text;strokeColor=none;fillColor=none;html=1;whiteSpace=wrap;verticalAlign=middle;overflow=hidden;" parent="Ub6wvxyK5UW_MMuhpgh0-1" vertex="1">
          <mxGeometry x="566.2" y="535" width="212.6" height="80" as="geometry" />
        </mxCell>
        <mxCell id="Cx3m1D398213YTi-TwLS-47" value="&lt;font style=&quot;font-size: 18px;&quot;&gt;STEP1&lt;/font&gt;" style="text;html=1;align=center;verticalAlign=middle;whiteSpace=wrap;rounded=0;fontStyle=1" parent="Ub6wvxyK5UW_MMuhpgh0-1" vertex="1">
          <mxGeometry x="622.5" y="480" width="60" height="30" as="geometry" />
        </mxCell>
        <mxCell id="Cx3m1D398213YTi-TwLS-48" value="&lt;font style=&quot;font-size: 18px;&quot;&gt;STEP2&lt;/font&gt;" style="text;html=1;align=center;verticalAlign=middle;whiteSpace=wrap;rounded=0;fontStyle=1" parent="Ub6wvxyK5UW_MMuhpgh0-1" vertex="1">
          <mxGeometry x="882.5" y="70" width="60" height="30" as="geometry" />
        </mxCell>
        <mxCell id="Cx3m1D398213YTi-TwLS-49" value="&lt;font style=&quot;font-size: 18px;&quot;&gt;STEP3&lt;/font&gt;" style="text;html=1;align=center;verticalAlign=middle;whiteSpace=wrap;rounded=0;fontStyle=1" parent="Ub6wvxyK5UW_MMuhpgh0-1" vertex="1">
          <mxGeometry x="232.5" y="320" width="60" height="30" as="geometry" />
        </mxCell>
      </root>
    </mxGraphModel>
  </diagram>
</mxfile>
